<svg width="200" height="200" xmlns="http://www.w3.org/2000/svg" viewBox="0 0 500 500">
              <g id="freepik--background-complete--inject-2">
                <path
                  d="M93.18,309.07a10.09,10.09,0,0,1,2.23-5.55,9.59,9.59,0,0,1,4.8-3.35,7.69,7.69,0,0,1,8.71,3.46,7.72,7.72,0,0,1,8.1-4.16,9.6,9.6,0,0,1,5.16,2.77,9.93,9.93,0,0,1,2.86,5.24A12.07,12.07,0,0,1,124,315a17.24,17.24,0,0,1-5.56,5.87c-3.72,2.55-8.61,5.75-8.61,5.75s-4.48-2.95-8.46-5a17.07,17.07,0,0,1-6.22-5.17A12.13,12.13,0,0,1,93.18,309.07Z"
                  style="fill: #ebebeb"
                ></path>
                <path
                  d="M371.89,198.62a10,10,0,0,1,2.23-5.55,9.52,9.52,0,0,1,4.79-3.35,7.69,7.69,0,0,1,8.71,3.46,7.72,7.72,0,0,1,8.1-4.16,9.6,9.6,0,0,1,5.16,2.77,10,10,0,0,1,2.87,5.24,12.14,12.14,0,0,1-1.07,7.53,17.15,17.15,0,0,1-5.56,5.87c-3.71,2.55-8.61,5.75-8.61,5.75s-4.47-3-8.46-5a17.07,17.07,0,0,1-6.22-5.17A12.12,12.12,0,0,1,371.89,198.62Z"
                  style="fill: #ebebeb"
                ></path>
                <path
                  d="M120.25,284.24a6.35,6.35,0,0,1,1.43-3.56,6.16,6.16,0,0,1,3.08-2.16,5.05,5.05,0,0,1,3.91.53,5.15,5.15,0,0,1,1.69,1.69,4.94,4.94,0,0,1,5.2-2.66,6.05,6.05,0,0,1,3.31,1.77,6.39,6.39,0,0,1,1.84,3.37,7.72,7.72,0,0,1-.68,4.83,11,11,0,0,1-3.57,3.77c-2.39,1.64-5.53,3.7-5.53,3.7s-2.88-1.9-5.44-3.24a11,11,0,0,1-4-3.32A7.78,7.78,0,0,1,120.25,284.24Z"
                  style="fill: #f5f5f5"
                ></path>
                <path
                  d="M354.78,223.1a6.45,6.45,0,0,1,1.43-3.56,6.16,6.16,0,0,1,3.08-2.15,5,5,0,0,1,5.6,2.22,5,5,0,0,1,1.38-1.68,5,5,0,0,1,3.82-1,6.13,6.13,0,0,1,3.31,1.78,6.36,6.36,0,0,1,1.84,3.37,7.73,7.73,0,0,1-.68,4.83,10.91,10.91,0,0,1-3.57,3.77c-2.39,1.63-5.53,3.69-5.53,3.69s-2.87-1.89-5.44-3.24a10.9,10.9,0,0,1-4-3.32A7.76,7.76,0,0,1,354.78,223.1Z"
                  style="fill: #f5f5f5"
                ></path>
                <path
                  d="M405.33,273.65a6.35,6.35,0,0,1,1.43-3.56,6.16,6.16,0,0,1,3.08-2.16,5.05,5.05,0,0,1,3.91.53,5.15,5.15,0,0,1,1.69,1.69,4.92,4.92,0,0,1,5.2-2.66,6.19,6.19,0,0,1,3.31,1.77,6.39,6.39,0,0,1,1.84,3.37,7.79,7.79,0,0,1-.68,4.83,10.94,10.94,0,0,1-3.58,3.77c-2.38,1.64-5.53,3.7-5.53,3.7s-2.87-1.9-5.43-3.24a11,11,0,0,1-4-3.32A7.78,7.78,0,0,1,405.33,273.65Z"
                  style="fill: #ebebeb"
                ></path>
                <path
                  d="M126.9,325.68a4.17,4.17,0,0,1,.95-2.34,4.06,4.06,0,0,1,2-1.43,3.33,3.33,0,0,1,2.58.35,3.49,3.49,0,0,1,1.11,1.12,3.37,3.37,0,0,1,.91-1.11,3.3,3.3,0,0,1,2.52-.65,4,4,0,0,1,2.18,1.17A4.26,4.26,0,0,1,140.4,325a5.15,5.15,0,0,1-.45,3.19,7.21,7.21,0,0,1-2.36,2.49c-1.57,1.08-3.65,2.43-3.65,2.43s-1.89-1.25-3.58-2.13a7.36,7.36,0,0,1-2.63-2.19A5.12,5.12,0,0,1,126.9,325.68Z"
                  style="fill: #f5f5f5"
                ></path>
                <path
                  d="M72.79,83.72s-4.61,4,5.4,13.21a157.3,157.3,0,0,0,16.1,13.39s2,2.26-.06,3.49S87,116.06,87,119.15s3,5.11,8.07,5.91,16,3,16.93,3.16,2.22,1.13.94,2.2-11.87,6.28-9.09,11.15,17.12,4.81,18.69,4.84,2.11.48,2.28,1.28-3.56,2.21-6.51,3.81-6.09,4-4.26,6.67,11.62,6.12,30.47,1.19l8.59-2.85,2-8.88c3.06-19.24-1.32-28.64-4.17-30.2s-4.91,1.79-6.22,4.88-2.35,6.94-3.16,6.86-1.32-.59-1.5-2.15-1.51-15.84-6.64-18.12-9.27,8.76-10.21,10.14-2,.22-2.28-.72-3.51-11.63-4.8-16.55-3.48-7.74-6.67-7.44-3.58,5.55-4.61,7.73-3.47.41-3.47.41A156.36,156.36,0,0,0,86.44,87.75c-10.17-9-13.74-3.94-13.74-3.94"
                  style="fill: #ebebeb"
                ></path>
                <path
                  d="M154.26,158.34c-7.44-6.68-20.47-18.77-31.71-29.09s-21.42-19.66-28.83-26.37l-8.78-7.94c-1-.94-1.84-1.66-2.39-2.17l-.62-.56-.2-.2a2.08,2.08,0,0,1,.22.17c.15.14.37.32.64.55L85,94.85c2.1,1.85,5.12,4.54,8.84,7.88,7.45,6.68,17.65,16,28.89,26.31S147,151.48,154.4,158.19"
                  style="fill: #e0e0e0"
                ></path>
                <path
                  d="M94.29,118A3,3,0,0,1,95,118l1.78,0c1.5,0,3.58,0,5.87.14l5.86.26,1.78.07a3.52,3.52,0,0,1,.65,0,2.84,2.84,0,0,1-.65.06c-.43,0-1,0-1.79,0-1.5,0-3.57-.09-5.86-.18l-5.87-.23L95,118.06A2.73,2.73,0,0,1,94.29,118Z"
                  style="fill: #e0e0e0"
                ></path>
                <path
                  d="M111.27,117.7c-.08,0-.17-4.29-.2-9.57s0-9.58.09-9.58.16,4.29.19,9.57S111.34,117.7,111.27,117.7Z"
                  style="fill: #e0e0e0"
                ></path>
                <path
                  d="M127.81,134.32a3.49,3.49,0,0,1,.15-.65c.14-.46.3-1,.5-1.74.42-1.48,1-3.52,1.53-5.79s1-4.34,1.27-5.85c.15-.7.26-1.3.36-1.78a2.76,2.76,0,0,1,.16-.65,3,3,0,0,1-.05.67c-.06.43-.14,1-.27,1.8-.25,1.51-.64,3.6-1.19,5.88s-1.15,4.31-1.62,5.78c-.24.73-.43,1.31-.58,1.72A2.74,2.74,0,0,1,127.81,134.32Z"
                  style="fill: #e0e0e0"
                ></path>
                <path
                  d="M112.52,138a2.22,2.22,0,0,1,.58-.21l1.62-.45c1.37-.38,3.26-.87,5.36-1.4s4-1,5.38-1.32l1.63-.37a3.8,3.8,0,0,1,.61-.1,2.51,2.51,0,0,1-.58.21l-1.61.45c-1.37.38-3.27.87-5.36,1.4s-4,1-5.38,1.32l-1.64.37A3.63,3.63,0,0,1,112.52,138Z"
                  style="fill: #e0e0e0"
                ></path>
                <path
                  d="M125.26,154.52a3.93,3.93,0,0,1,.75-.25l2.07-.59c1.75-.49,4.17-1.14,6.85-1.85s5.11-1.33,6.88-1.77l2.09-.5a4.65,4.65,0,0,1,.77-.15,4,4,0,0,1-.74.26l-2.07.59c-1.75.48-4.18,1.14-6.86,1.84s-5.11,1.33-6.87,1.77l-2.09.5A3.62,3.62,0,0,1,125.26,154.52Z"
                  style="fill: #e0e0e0"
                ></path>
                <path
                  d="M144.18,149.4a4.51,4.51,0,0,1,.17-.83c.14-.57.32-1.33.55-2.23.46-1.89,1.09-4.5,1.7-7.4s1.11-5.55,1.45-7.46c.17-.92.31-1.68.41-2.27a5.48,5.48,0,0,1,.18-.83,5.22,5.22,0,0,1-.07.85c-.07.54-.17,1.32-.32,2.28-.29,1.93-.75,4.58-1.37,7.48s-1.28,5.52-1.79,7.4c-.26.94-.48,1.69-.64,2.21A6.62,6.62,0,0,1,144.18,149.4Z"
                  style="fill: #e0e0e0"
                ></path>
                <path
                  d="M355.28,139.38C342,127.75,340.7,108.7,343.08,92c.4-2.8.41-5.79,2-8.11s4.89-3.66,7.28-2.21c2,1.21,2.62,3.73,3.57,5.86a16.45,16.45,0,0,0,5.9,7c1.69,1.12,3.84,1.92,5.71,1.14,2.56-1.07,3.2-4.38,3.49-7.18q.79-7.8,1.58-15.61a25.83,25.83,0,0,1,1.74-8.19c1.15-2.56,3.33-4.81,6.07-5.27s5.85,1.43,6.11,4.22a24,24,0,0,1-.29,3.48,2.94,2.94,0,0,0,1.42,3c1.08.45,2.28-.22,3.2-1,3.18-2.51,5.53-5.93,7.75-9.34S403,52.83,406,50s6.82-4.83,10.84-4.63,8,3.13,8.6,7.16-2.14,7.79-5,10.7a62.92,62.92,0,0,1-14.3,11,5.14,5.14,0,0,0-2.42,2.1c-.81,1.79.76,3.83,2.53,4.64,2,.91,4.28.94,6.43,1.43s4.4,1.71,5,3.85c.84,3-1.87,5.71-4.43,7.41a53.52,53.52,0,0,1-16.77,7.42c-2.13.53-4.36,1-6.17,2.22S387.2,107,388,109s3.29,3,5.48,2.82,4.25-1.13,6.38-1.68c4-1,8.91-.24,11,3.34a8.87,8.87,0,0,1,.1,7.91,20.48,20.48,0,0,1-5,6.44,54,54,0,0,1-24.65,13.63c-9.22,2.12-17.55,2.07-26.05-2.11"
                  style="fill: #f5f5f5"
                ></path>
                <path
                  d="M360.76,129.31a253.21,253.21,0,0,1,12.82-25.85c1.26-2.23,2.49-4.43,3.71-6.6s2.44-4.31,3.75-6.34a128,128,0,0,1,8.23-11.21c2.79-3.44,5.56-6.6,8.17-9.54s5.12-5.62,7.5-8a100,100,0,0,1,12-10.25c1.51-1.1,2.71-1.91,3.53-2.45l.94-.61a1.74,1.74,0,0,1,.33-.19,2.44,2.44,0,0,1-.3.24l-.91.65c-.8.56-2,1.4-3.47,2.52a106.39,106.39,0,0,0-11.9,10.35c-2.35,2.37-4.83,5.06-7.43,8s-5.35,6.12-8.12,9.56a123.14,123.14,0,0,0-8.17,11.18c-1.31,2-2.51,4.14-3.73,6.31l-3.71,6.6a257.86,257.86,0,0,0-12.83,25.78"
                  style="fill: #e0e0e0"
                ></path>
                <path
                  d="M381.19,90.52a6.6,6.6,0,0,1-.14-1.22c-.07-.79-.12-1.93-.17-3.34-.09-2.82-.09-6.72-.07-11s0-8.19-.17-11c-.07-1.41-.13-2.55-.19-3.33a5.07,5.07,0,0,1,0-1.23,6.42,6.42,0,0,1,.22,1.21c.12.78.24,1.92.35,3.32.23,2.82.34,6.72.32,11s-.05,8.08-.07,11v3.34A5.05,5.05,0,0,1,381.19,90.52Z"
                  style="fill: #e0e0e0"
                ></path>
                <path
                  d="M417.79,87.68a8.67,8.67,0,0,1-1.45,0c-.93,0-2.28,0-3.94,0-3.32,0-7.91.16-13,.56s-9.62,1-12.91,1.48c-1.65.24-3,.47-3.89.62a8.64,8.64,0,0,1-1.44.2,7.13,7.13,0,0,1,1.4-.4c.91-.21,2.23-.5,3.87-.79,3.29-.59,7.86-1.22,12.93-1.63a128.71,128.71,0,0,1,13-.41c1.66,0,3,.12,3.94.2A7.53,7.53,0,0,1,417.79,87.68Z"
                  style="fill: #e0e0e0"
                ></path>
                <path
                  d="M361.27,128.69a1.77,1.77,0,0,1-.2-.46l-.47-1.36c-.41-1.19-1-2.92-1.59-5.07-1.29-4.3-2.88-10.29-4.55-16.92s-3.2-12.63-4.4-16.95l-1.43-5.11c-.15-.55-.28-1-.38-1.39a1.81,1.81,0,0,1-.1-.5,3.32,3.32,0,0,1,.2.47c.12.37.28.82.47,1.36.41,1.19.95,2.92,1.59,5.07,1.29,4.29,2.88,10.28,4.55,16.92s3.2,12.63,4.4,17l1.43,5.11c.15.55.28,1,.38,1.39A1.85,1.85,0,0,1,361.27,128.69Z"
                  style="fill: #e0e0e0"
                ></path>
                <path
                  d="M410.59,118.47a1.44,1.44,0,0,1-.49.14l-1.43.32-5.29,1.1c-4.46.94-10.6,2.29-17.39,3.81s-13,2.81-17.44,3.65c-2.24.43-4.06.75-5.32,1l-1.45.21a1.52,1.52,0,0,1-.51,0,3.24,3.24,0,0,1,.49-.14l1.44-.31,5.28-1.11c4.46-.93,10.61-2.29,17.4-3.8s12.95-2.82,17.43-3.66c2.24-.42,4.06-.74,5.32-.94l1.45-.22A2,2,0,0,1,410.59,118.47Z"
                  style="fill: #e0e0e0"
                ></path>
              </g>
              <g id="freepik--Floor--inject-2">
                <path
                  d="M473.37,465.82c0,.15-100,.27-223.36.27S26.63,466,26.63,465.82s100-.26,223.38-.26S473.37,465.68,473.37,465.82Z"
                  style="fill: #263238"
                ></path>
              </g>
              <g id="freepik--404-error--inject-2">
                <path
                  d="M115.06,92.78a5.68,5.68,0,0,1-.41-1.17c-.12-.38-.25-.86-.37-1.41S114,89,113.9,88.3a34.61,34.61,0,0,1-.46-5,38.38,38.38,0,0,1,.42-6.15,39.62,39.62,0,0,1,1.47-6,34.42,34.42,0,0,1,2-4.63c.31-.65.66-1.2.94-1.7s.55-.9.78-1.23a5.82,5.82,0,0,1,.75-1c.08.05-.91,1.52-2.14,4.08a39.27,39.27,0,0,0-1.84,4.62,43.37,43.37,0,0,0-1.42,5.93,42.7,42.7,0,0,0-.45,6.07,38.92,38.92,0,0,0,.35,5C114.66,91.06,115.16,92.76,115.06,92.78Z"
                  style="fill: #263238"
                ></path>
                <rect
                  x="143.89"
                  y="50.7"
                  width="220.56"
                  height="124.06"
                  transform="translate(-16.33 48.4) rotate(-10.54)"
                  style="fill: #fff"
                ></rect>
                <path
                  d="M373.94,153.54s-.16-.74-.43-2.18-.68-3.58-1.21-6.37c-1.05-5.58-2.6-13.81-4.58-24.37-4-21.11-9.66-51.57-16.68-89l.24.16L134.46,72.17h0l.21-.31c8,43.14,15.69,84.4,22.68,122l-.29-.2,156-28.91,44.81-8.27,11.94-2.19,3.08-.56,1.06-.18-1,.21-3.05.58L358,156.57,313.26,165,157.14,194.13l-.24.05,0-.24c-7-37.58-14.68-78.83-22.72-122l0-.26.25,0h0L351.2,31.37l.2,0,0,.19,16.48,89.18c1.94,10.55,3.45,18.76,4.48,24.34l1.16,6.34C373.82,152.82,373.94,153.54,373.94,153.54Z"
                  style="fill: #263238"
                ></path>
                <path
                  d="M227.67,118.66,221,119.9l1.6,8.57-12.34,2.3-1.6-8.57L185,126.6l-1.54-8.25,14.88-31.67,13.11-2.44-13.36,29.54,9.08-1.69-1.42-7.61,12-2.22,1.42,7.6,6.64-1.23Z"
                  style="fill: #263238"
                ></path>
                <path
                  d="M227.66,104.38c-2.75-14.77,4-24.82,15.43-26.95s21.27,4.84,24,19.61-4,24.82-15.36,26.93S230.41,119.15,227.66,104.38Zm26.73-5C252.64,90,249,87,245,87.79s-6.38,4.82-4.63,14.22,5.34,12.37,9.43,11.61S256.14,108.8,254.39,99.4Z"
                  style="fill: #263238"
                ></path>
                <path
                  d="M316.23,102.18l-6.65,1.24,1.59,8.57-12.33,2.3-1.6-8.57-23.66,4.4-1.53-8.25L286.93,70.2,300,67.76,286.68,97.3l9.08-1.69L294.34,88l12-2.22,1.41,7.6,6.65-1.23Z"
                  style="fill: #263238"
                ></path>
                <path
                  d="M232.08,154.75l.41,2.18-12.74,2.37-3.27-17.56,12.39-2.3.4,2.18-9.88,1.84,1,5.39,8.81-1.64.4,2.14L220.79,151l1.06,5.66Z"
                  style="fill: #263238"
                ></path>
                <path
                  d="M248.28,154l-4.79-4.69c-.34.09-.71.19-1.09.26l-4.34.81,1,5.34-2.5.47-3.27-17.56,6.85-1.28c4.56-.85,7.75.95,8.46,4.76a5.64,5.64,0,0,1-2.83,6.26l5.26,5.12Zm-2.2-11.42c-.47-2.51-2.41-3.63-5.62-3l-4.27.79,1.47,7.9,4.27-.79C245.14,146.84,246.55,145.08,246.08,142.57Z"
                  style="fill: #263238"
                ></path>
                <path
                  d="M266.51,150.6l-4.79-4.69c-.34.09-.71.19-1.09.26l-4.34.8,1,5.35-2.5.46-3.27-17.55,6.85-1.28c4.56-.85,7.75,1,8.46,4.76A5.64,5.64,0,0,1,264,145l5.26,5.12Zm-2.2-11.42c-.47-2.51-2.41-3.63-5.62-3l-4.27.79,1.47,7.9,4.27-.79C263.37,143.45,264.78,141.68,264.31,139.18Z"
                  style="fill: #263238"
                ></path>
                <path
                  d="M269.94,140.88c-.95-5.14,2.29-9.72,7.69-10.72s10,2.08,11,7.25-2.29,9.71-7.63,10.71S270.9,146,269.94,140.88Zm16.16-3a6.94,6.94,0,1,0-5.55,8A6.71,6.71,0,0,0,286.1,137.87Z"
                  style="fill: #263238"
                ></path>
                <path
                  d="M305.81,143.29,301,138.6c-.35.09-.72.18-1.1.25l-4.34.81,1,5.34-2.51.47-3.27-17.56,6.85-1.27c4.57-.85,7.75.94,8.46,4.76a5.62,5.62,0,0,1-2.83,6.26l5.26,5.12Zm-2.21-11.43c-.46-2.5-2.41-3.62-5.62-3l-4.26.79,1.47,7.9,4.26-.79C302.66,136.14,304.07,134.37,303.6,131.86Z"
                  style="fill: #263238"
                ></path>
                <path
                  d="M346.67,44.78A4.52,4.52,0,1,1,342,40.44,4.52,4.52,0,0,1,346.67,44.78Z"
                  style="fill: #e0e0e0"
                ></path>
                <path
                  d="M346.67,44.78c-.05,0-.06-.4-.28-1.07a4.57,4.57,0,0,0-1.75-2.3,4.32,4.32,0,0,0-6.74,3.72,4.32,4.32,0,0,0,7,3.17,4.5,4.5,0,0,0,1.56-2.43c.17-.69.15-1.09.2-1.09s0,.1.05.29a3.32,3.32,0,0,1-.05.84,4.47,4.47,0,0,1-1.53,2.67,4.69,4.69,0,0,1-4.43.91,4.74,4.74,0,0,1-.35-8.93,4.68,4.68,0,0,1,4.49.55,4.5,4.5,0,0,1,1.73,2.55,2.94,2.94,0,0,1,.11.83C346.69,44.68,346.69,44.78,346.67,44.78Z"
                  style="fill: #263238"
                ></path>
                <path
                  d="M344.15,41.64a5.08,5.08,0,0,1-.62,3.51,5.08,5.08,0,0,1-2.42,2.61,25.68,25.68,0,0,0,1.95-2.85A26.36,26.36,0,0,0,344.15,41.64Z"
                  style="fill: #263238"
                ></path>
                <path
                  d="M345,46.43c-.13.08-.73-1.11-2.09-1.81a9.65,9.65,0,0,0-2.69-.66c0-.07.3-.21.85-.25a4.06,4.06,0,0,1,2.08.45,4,4,0,0,1,1.56,1.44C345,46.07,345.1,46.41,345,46.43Z"
                  style="fill: #263238"
                ></path>
                <rect
                  x="133.1"
                  y="108.24"
                  width="14.55"
                  height="6.58"
                  transform="translate(-38.91 111.84) rotate(-38.57)"
                  style="fill: #e0e0e0"
                ></rect>
                <path
                  d="M148.11,109.57s-.46-.5-1.2-1.38l-3-3.65.27,0c-2.92,2.38-6.91,5.6-11.33,9.12,0,.33,0-.44,0-.36h0l0,0,0,0,.07.09.14.17.27.33.53.67,1,1.31,2,2.5-.35,0c3.28-2.59,6.13-4.79,8.18-6.37l2.42-1.84a8.42,8.42,0,0,1,.93-.66,6.55,6.55,0,0,1-.76.68l-2.3,1.92c-2,1.64-4.82,4-8.16,6.66l-.19.15-.16-.19-2-2.49c-.35-.43-.7-.86-1.05-1.31l-.53-.66-.27-.34-.14-.17-.06-.08,0,0v0h0c0,.08.08-.69,0-.36,4.42-3.53,8.45-6.7,11.42-9l.15-.11.12.14c1.27,1.64,2.28,3,3,3.88A12.4,12.4,0,0,1,148.11,109.57Z"
                  style="fill: #263238"
                ></path>
                <path
                  d="M130.08,120a6.07,6.07,0,0,0,8.53,1L131,111.5A6.07,6.07,0,0,0,130.08,120Z"
                  style="fill: #e0e0e0"
                ></path>
                <path
                  d="M130.08,120a2.24,2.24,0,0,1-.47-.53,5.8,5.8,0,0,1-.82-1.82,5.94,5.94,0,0,1,0-3.06,6.25,6.25,0,0,1,2.11-3.31l.19-.15.15.19,3.8,4.73c1.34,1.68,2.61,3.29,3.77,4.76l.15.19-.19.15a6.31,6.31,0,0,1-3.69,1.33,6.12,6.12,0,0,1-3-.7,5.76,5.76,0,0,1-1.58-1.21,2.28,2.28,0,0,1-.42-.57,9.21,9.21,0,0,0,2.13,1.52,6,6,0,0,0,6.25-.75l0,.34-3.8-4.73-3.77-4.76.33,0a6,6,0,0,0-2.12,5.94A9.57,9.57,0,0,0,130.08,120Z"
                  style="fill: #263238"
                ></path>
                <path d="M131.48,116.85a3.84,3.84,0,0,0-.63,4" style="fill: #e0e0e0"></path>
                <path
                  d="M130.85,120.89a2.28,2.28,0,0,1-.52-2.15c.19-1.3,1.07-2,1.15-1.89s-.48.85-.64,2S131,120.82,130.85,120.89Z"
                  style="fill: #263238"
                ></path>
                <path
                  d="M138.63,117.5a22.67,22.67,0,0,1-2.22-2.65,22.94,22.94,0,0,1-2.2-2.65,7.7,7.7,0,0,1,2.6,2.32A8,8,0,0,1,138.63,117.5Z"
                  style="fill: #263238"
                ></path>
                <path
                  d="M140,116.44a23.08,23.08,0,0,1-2.21-2.65,22.26,22.26,0,0,1-2.2-2.66,11.76,11.76,0,0,1,4.41,5.31Z"
                  style="fill: #263238"
                ></path>
                <path
                  d="M141.3,115.37a22.07,22.07,0,0,1-2.21-2.65,22.46,22.46,0,0,1-2.21-2.65,7.78,7.78,0,0,1,2.61,2.32A8.1,8.1,0,0,1,141.3,115.37Z"
                  style="fill: #263238"
                ></path>
                <path
                  d="M142.63,114.31a23.08,23.08,0,0,1-2.21-2.65,23.5,23.5,0,0,1-2.2-2.66,8,8,0,0,1,2.6,2.32A7.85,7.85,0,0,1,142.63,114.31Z"
                  style="fill: #263238"
                ></path>
                <path
                  d="M144,113.24a22.07,22.07,0,0,1-2.21-2.65,21.75,21.75,0,0,1-2.2-2.65,7.91,7.91,0,0,1,2.6,2.32A8.1,8.1,0,0,1,144,113.24Z"
                  style="fill: #263238"
                ></path>
                <path
                  d="M145.3,112.18a23.08,23.08,0,0,1-2.21-2.65,23.5,23.5,0,0,1-2.2-2.66,8,8,0,0,1,2.6,2.32A7.85,7.85,0,0,1,145.3,112.18Z"
                  style="fill: #263238"
                ></path>
                <path
                  d="M146.64,111.11a22.07,22.07,0,0,1-2.21-2.65,21.75,21.75,0,0,1-2.2-2.65,7.91,7.91,0,0,1,2.6,2.32A8.1,8.1,0,0,1,146.64,111.11Z"
                  style="fill: #263238"
                ></path>
                <path
                  d="M154.5,82c-.05,0-.06-.41-.28-1.08a4.51,4.51,0,0,0-1.78-2.33,4.37,4.37,0,0,0-6.83,3.76,4.37,4.37,0,0,0,7.11,3.21,4.52,4.52,0,0,0,1.58-2.46c.17-.69.15-1.1.2-1.1s0,.1.05.29a3.41,3.41,0,0,1-.05.85A4.57,4.57,0,0,1,153,85.88a4.7,4.7,0,0,1-4.48.91,4.8,4.8,0,0,1-.36-9,4.77,4.77,0,0,1,4.55.56,4.58,4.58,0,0,1,1.75,2.58,3.61,3.61,0,0,1,.12.84Q154.53,82,154.5,82Z"
                  style="fill: #263238"
                ></path>
                <path
                  d="M124.8,93.08a6.56,6.56,0,0,1-.4-1.17,11.47,11.47,0,0,1-.37-1.42c-.12-.55-.29-1.18-.38-1.89a34.63,34.63,0,0,1-.47-5,35.49,35.49,0,0,1,1.9-12.15,33.87,33.87,0,0,1,2-4.64c.3-.65.65-1.2.93-1.69a14.38,14.38,0,0,1,.78-1.23,6.27,6.27,0,0,1,.75-1c.09.06-.91,1.52-2.13,4.09a36.28,36.28,0,0,0-1.85,4.62,42.17,42.17,0,0,0-1.41,5.92,41.39,41.39,0,0,0-.46,6.08,38.61,38.61,0,0,0,.35,5C124.4,91.36,124.9,93.05,124.8,93.08Z"
                  style="fill: #263238"
                ></path>
                <path
                  d="M388.49,137a5,5,0,0,1,.41,1.17,13.33,13.33,0,0,1,.37,1.41c.12.56.29,1.19.38,1.9a34.49,34.49,0,0,1,.47,5,35.59,35.59,0,0,1-1.9,12.15,33.18,33.18,0,0,1-2,4.63c-.31.65-.65,1.2-.94,1.7a11.66,11.66,0,0,1-.78,1.23,5.54,5.54,0,0,1-.74,1c-.09-.05.91-1.52,2.13-4.08a41,41,0,0,0,1.85-4.62,42,42,0,0,0,1.41-5.93,41.36,41.36,0,0,0,.46-6.07,40.84,40.84,0,0,0-.35-5C388.9,138.76,388.4,137.06,388.49,137Z"
                  style="fill: #263238"
                ></path>
                <path
                  d="M395,138.76a5.27,5.27,0,0,1,.41,1.17,13.33,13.33,0,0,1,.37,1.41c.12.56.28,1.19.38,1.9a34.49,34.49,0,0,1,.47,5,39.49,39.49,0,0,1-.42,6.15,38.43,38.43,0,0,1-1.48,6,33.87,33.87,0,0,1-2,4.64c-.31.64-.65,1.19-.94,1.69A13.54,13.54,0,0,1,391,168a5.54,5.54,0,0,1-.74,1c-.09-.05.91-1.52,2.13-4.08a39.51,39.51,0,0,0,1.85-4.62,42,42,0,0,0,1.41-5.93,41.16,41.16,0,0,0,.46-6.07,40.51,40.51,0,0,0-.35-5C395.4,140.48,394.9,138.78,395,138.76Z"
                  style="fill: #263238"
                ></path>
              </g>
              <g id="freepik--speech-bubble--inject-2">
                <path
                  d="M177.53,217.21a42.23,42.23,0,1,0-10.64,10l14.52,6.43Z"
                  style="fill: #fafafa"
                ></path>
                <path
                  d="M130.92,189.52a7.77,7.77,0,0,1,1.75-4.34,7.47,7.47,0,0,1,3.75-2.63,6,6,0,0,1,6.83,2.71A6.05,6.05,0,0,1,149.6,182a7.54,7.54,0,0,1,4,2.17,7.9,7.9,0,0,1,2.25,4.11,9.45,9.45,0,0,1-.84,5.9,13.41,13.41,0,0,1-4.36,4.6c-2.91,2-6.74,4.5-6.74,4.5s-3.51-2.31-6.63-3.95a13.43,13.43,0,0,1-4.88-4.05A9.49,9.49,0,0,1,130.92,189.52Z"
                  style="fill: #ff81ae"
                ></path>
                <path
                  d="M143.68,149.83a4.16,4.16,0,0,0-.74,0l-2.15.07c-.48,0-1,0-1.59.07l-1.9.26-2.22.32-2.48.62a39.88,39.88,0,0,0-12,5.24,42.43,42.43,0,0,0-19.48,31.88,45,45,0,0,0-.12,5.82c.07,1,0,2,.19,3s.3,2,.46,3a42.52,42.52,0,0,0,4,11.83,45.2,45.2,0,0,0,7.72,10.63,44.59,44.59,0,0,0,11.13,8,40.3,40.3,0,0,0,13.57,4.16,25.75,25.75,0,0,0,3.62.31,31.85,31.85,0,0,0,3.66.07,43.62,43.62,0,0,0,7.33-.93A42.52,42.52,0,0,0,167.27,228l-.44.05,14.86,6,.88.36-.25-.92L178,217.55l-.07.39a42.6,42.6,0,0,0,7.92-18.15,38.17,38.17,0,0,0,.58-9.3A29.83,29.83,0,0,0,186,186c-.11-.73-.23-1.45-.34-2.17s-.35-1.41-.52-2.11a42.45,42.45,0,0,0-16.57-24.16,40.84,40.84,0,0,0-9.87-5.21l-2.22-.79-2.11-.54-1.93-.48c-.62-.12-1.22-.18-1.78-.27-1.12-.14-2.11-.33-3-.38l-2.19-.07-1.33,0a1.54,1.54,0,0,0-.45,0,2.62,2.62,0,0,0,.45.06l1.33.1,2.16.15c.86.07,1.84.28,2.95.45a42.25,42.25,0,0,1,33.79,31.34c.16.69.37,1.37.5,2.07s.21,1.42.32,2.13a28.89,28.89,0,0,1,.39,4.39,37.7,37.7,0,0,1-.6,9.12,41.75,41.75,0,0,1-7.82,17.75l-.13.18.06.22c1.4,5.13,2.84,10.44,4.33,15.89l.63-.56-14.85-6-.23-.09-.22.13a41.88,41.88,0,0,1-14.26,6,42.51,42.51,0,0,1-7.16.91,32.86,32.86,0,0,1-3.58-.07,26,26,0,0,1-3.53-.3,39.48,39.48,0,0,1-13.27-4.05A43.85,43.85,0,0,1,114,221.86a44.79,44.79,0,0,1-7.59-10.39,42,42,0,0,1-4-11.57c-.15-1-.3-2-.45-2.93s-.13-2-.2-2.92a41.86,41.86,0,0,1,19.07-37.21,40.31,40.31,0,0,1,11.82-5.33l2.45-.65,2.2-.36,1.88-.31c.58-.07,1.11-.08,1.58-.12l2.15-.16A6.08,6.08,0,0,0,143.68,149.83Z"
                  style="fill: #263238"
                ></path>
              </g>
            </svg>